<mxfile host="Electron" modified="2023-11-14T01:18:51.700Z" agent="Mozilla/5.0 (Macintosh; Intel Mac OS X 10_15_7) AppleWebKit/537.36 (KHTML, like Gecko) draw.io/22.0.3 Chrome/114.0.5735.289 Electron/25.8.4 Safari/537.36" etag="-LBOnjhoD2Yf_QwhHWIL" version="22.0.3" type="device">
  <diagram name="第 1 页" id="PUIvxS52mMbsvCh7b0W6">
    <mxGraphModel dx="1026" dy="658" grid="1" gridSize="10" guides="1" tooltips="1" connect="1" arrows="1" fold="1" page="1" pageScale="1" pageWidth="827" pageHeight="1169" math="0" shadow="0">
      <root>
        <mxCell id="0" />
        <mxCell id="1" parent="0" />
        <mxCell id="_V6ixGNHPL5zndSTNIyI-1" value="" style="rounded=1;whiteSpace=wrap;html=1;" vertex="1" parent="1">
          <mxGeometry x="90" width="350" height="80" as="geometry" />
        </mxCell>
        <mxCell id="_V6ixGNHPL5zndSTNIyI-2" value="" style="rounded=1;whiteSpace=wrap;html=1;" vertex="1" parent="1">
          <mxGeometry y="90" width="80" height="150" as="geometry" />
        </mxCell>
        <mxCell id="_V6ixGNHPL5zndSTNIyI-3" value="" style="rounded=1;whiteSpace=wrap;html=1;arcSize=5;" vertex="1" parent="1">
          <mxGeometry x="90" y="90" width="350" height="150" as="geometry" />
        </mxCell>
        <mxCell id="_V6ixGNHPL5zndSTNIyI-4" value="♥️" style="text;html=1;strokeColor=none;fillColor=none;align=center;verticalAlign=middle;whiteSpace=wrap;rounded=0;fontSize=24;" vertex="1" parent="1">
          <mxGeometry x="120" y="25" width="40" height="30" as="geometry" />
        </mxCell>
        <mxCell id="_V6ixGNHPL5zndSTNIyI-5" value="♦️" style="text;html=1;strokeColor=none;fillColor=none;align=center;verticalAlign=middle;whiteSpace=wrap;rounded=0;fontSize=24;" vertex="1" parent="1">
          <mxGeometry x="200" y="25" width="40" height="30" as="geometry" />
        </mxCell>
        <mxCell id="_V6ixGNHPL5zndSTNIyI-6" value="♠️" style="text;html=1;strokeColor=none;fillColor=none;align=center;verticalAlign=middle;whiteSpace=wrap;rounded=0;fontSize=24;" vertex="1" parent="1">
          <mxGeometry x="280" y="25" width="40" height="30" as="geometry" />
        </mxCell>
        <mxCell id="_V6ixGNHPL5zndSTNIyI-7" value="♣️" style="text;html=1;strokeColor=none;fillColor=none;align=center;verticalAlign=middle;whiteSpace=wrap;rounded=0;fontSize=24;" vertex="1" parent="1">
          <mxGeometry x="360" y="25" width="40" height="30" as="geometry" />
        </mxCell>
        <mxCell id="_V6ixGNHPL5zndSTNIyI-8" value="1" style="text;html=1;strokeColor=none;fillColor=none;align=center;verticalAlign=middle;whiteSpace=wrap;rounded=0;fontSize=24;" vertex="1" parent="1">
          <mxGeometry x="10" y="100" width="60" height="30" as="geometry" />
        </mxCell>
        <mxCell id="_V6ixGNHPL5zndSTNIyI-9" value="2" style="text;html=1;strokeColor=none;fillColor=none;align=center;verticalAlign=middle;whiteSpace=wrap;rounded=0;fontSize=24;" vertex="1" parent="1">
          <mxGeometry x="10" y="130" width="60" height="30" as="geometry" />
        </mxCell>
        <mxCell id="_V6ixGNHPL5zndSTNIyI-10" value="&lt;meta charset=&quot;utf-8&quot; style=&quot;font-size: 24px;&quot;&gt;&lt;span style=&quot;color: rgb(0, 0, 0); font-family: Helvetica; font-size: 24px; font-style: normal; font-variant-ligatures: normal; font-variant-caps: normal; font-weight: 400; letter-spacing: normal; orphans: 2; text-align: center; text-indent: 0px; text-transform: none; widows: 2; word-spacing: 0px; -webkit-text-stroke-width: 0px; background-color: rgb(251, 251, 251); text-decoration-thickness: initial; text-decoration-style: initial; text-decoration-color: initial; float: none; display: inline !important;&quot;&gt;3&lt;/span&gt;" style="text;html=1;strokeColor=none;fillColor=none;align=center;verticalAlign=middle;whiteSpace=wrap;rounded=0;fontSize=24;" vertex="1" parent="1">
          <mxGeometry x="10" y="160" width="60" height="30" as="geometry" />
        </mxCell>
        <mxCell id="_V6ixGNHPL5zndSTNIyI-11" value="&lt;span style=&quot;color: rgb(0, 0, 0); font-family: Helvetica; font-size: 24px; font-style: normal; font-variant-ligatures: normal; font-variant-caps: normal; font-weight: 400; letter-spacing: normal; orphans: 2; text-align: center; text-indent: 0px; text-transform: none; widows: 2; word-spacing: 0px; -webkit-text-stroke-width: 0px; background-color: rgb(251, 251, 251); text-decoration-thickness: initial; text-decoration-style: initial; text-decoration-color: initial; float: none; display: inline !important;&quot;&gt;⋮&lt;/span&gt;" style="text;html=1;strokeColor=none;fillColor=none;align=center;verticalAlign=middle;whiteSpace=wrap;rounded=0;fontSize=24;" vertex="1" parent="1">
          <mxGeometry x="10" y="200" width="60" height="30" as="geometry" />
        </mxCell>
        <mxCell id="_V6ixGNHPL5zndSTNIyI-12" value="(♥️, 1)" style="text;html=1;strokeColor=none;fillColor=none;align=center;verticalAlign=middle;whiteSpace=wrap;rounded=0;fontSize=24;" vertex="1" parent="1">
          <mxGeometry x="100" y="100" width="80" height="30" as="geometry" />
        </mxCell>
        <mxCell id="_V6ixGNHPL5zndSTNIyI-30" value="(♥️, 2)" style="text;html=1;strokeColor=none;fillColor=none;align=center;verticalAlign=middle;whiteSpace=wrap;rounded=0;fontSize=24;" vertex="1" parent="1">
          <mxGeometry x="100" y="130" width="80" height="30" as="geometry" />
        </mxCell>
        <mxCell id="_V6ixGNHPL5zndSTNIyI-31" value="(♥️, 3)" style="text;html=1;strokeColor=none;fillColor=none;align=center;verticalAlign=middle;whiteSpace=wrap;rounded=0;fontSize=24;" vertex="1" parent="1">
          <mxGeometry x="100" y="160" width="80" height="30" as="geometry" />
        </mxCell>
        <mxCell id="_V6ixGNHPL5zndSTNIyI-32" value="(♦️, 1)" style="text;html=1;strokeColor=none;fillColor=none;align=center;verticalAlign=middle;whiteSpace=wrap;rounded=0;fontSize=24;" vertex="1" parent="1">
          <mxGeometry x="180" y="100" width="80" height="30" as="geometry" />
        </mxCell>
        <mxCell id="_V6ixGNHPL5zndSTNIyI-33" value="(♦️, 2)" style="text;html=1;strokeColor=none;fillColor=none;align=center;verticalAlign=middle;whiteSpace=wrap;rounded=0;fontSize=24;" vertex="1" parent="1">
          <mxGeometry x="180" y="130" width="80" height="30" as="geometry" />
        </mxCell>
        <mxCell id="_V6ixGNHPL5zndSTNIyI-34" value="(♦️, 3)" style="text;html=1;strokeColor=none;fillColor=none;align=center;verticalAlign=middle;whiteSpace=wrap;rounded=0;fontSize=24;" vertex="1" parent="1">
          <mxGeometry x="180" y="160" width="80" height="30" as="geometry" />
        </mxCell>
        <mxCell id="_V6ixGNHPL5zndSTNIyI-35" value="(♠️, 1)" style="text;html=1;strokeColor=none;fillColor=none;align=center;verticalAlign=middle;whiteSpace=wrap;rounded=0;fontSize=24;" vertex="1" parent="1">
          <mxGeometry x="260" y="100" width="80" height="30" as="geometry" />
        </mxCell>
        <mxCell id="_V6ixGNHPL5zndSTNIyI-36" value="(♠️, 2)" style="text;html=1;strokeColor=none;fillColor=none;align=center;verticalAlign=middle;whiteSpace=wrap;rounded=0;fontSize=24;" vertex="1" parent="1">
          <mxGeometry x="260" y="130" width="80" height="30" as="geometry" />
        </mxCell>
        <mxCell id="_V6ixGNHPL5zndSTNIyI-37" value="(♠️, 3)" style="text;html=1;strokeColor=none;fillColor=none;align=center;verticalAlign=middle;whiteSpace=wrap;rounded=0;fontSize=24;" vertex="1" parent="1">
          <mxGeometry x="260" y="160" width="80" height="30" as="geometry" />
        </mxCell>
        <mxCell id="_V6ixGNHPL5zndSTNIyI-38" value="(♣️, 1)" style="text;html=1;strokeColor=none;fillColor=none;align=center;verticalAlign=middle;whiteSpace=wrap;rounded=0;fontSize=24;" vertex="1" parent="1">
          <mxGeometry x="340" y="100" width="80" height="30" as="geometry" />
        </mxCell>
        <mxCell id="_V6ixGNHPL5zndSTNIyI-39" value="(♣️, 2)" style="text;html=1;strokeColor=none;fillColor=none;align=center;verticalAlign=middle;whiteSpace=wrap;rounded=0;fontSize=24;" vertex="1" parent="1">
          <mxGeometry x="340" y="130" width="80" height="30" as="geometry" />
        </mxCell>
        <mxCell id="_V6ixGNHPL5zndSTNIyI-40" value="(♣️, 3)" style="text;html=1;strokeColor=none;fillColor=none;align=center;verticalAlign=middle;whiteSpace=wrap;rounded=0;fontSize=24;" vertex="1" parent="1">
          <mxGeometry x="340" y="160" width="80" height="30" as="geometry" />
        </mxCell>
        <mxCell id="_V6ixGNHPL5zndSTNIyI-42" value="&lt;span style=&quot;color: rgb(0, 0, 0); font-family: Helvetica; font-size: 24px; font-style: normal; font-variant-ligatures: normal; font-variant-caps: normal; font-weight: 400; letter-spacing: normal; orphans: 2; text-align: center; text-indent: 0px; text-transform: none; widows: 2; word-spacing: 0px; -webkit-text-stroke-width: 0px; background-color: rgb(251, 251, 251); text-decoration-thickness: initial; text-decoration-style: initial; text-decoration-color: initial; float: none; display: inline !important;&quot;&gt;⋮&lt;/span&gt;" style="text;html=1;strokeColor=none;fillColor=none;align=center;verticalAlign=middle;whiteSpace=wrap;rounded=0;fontSize=24;" vertex="1" parent="1">
          <mxGeometry x="230" y="200" width="60" height="30" as="geometry" />
        </mxCell>
        <mxCell id="_V6ixGNHPL5zndSTNIyI-43" value="&lt;font style=&quot;font-size: 24px;&quot;&gt;: Int&lt;/font&gt;" style="text;html=1;strokeColor=none;fillColor=none;align=center;verticalAlign=middle;whiteSpace=wrap;rounded=0;" vertex="1" parent="1">
          <mxGeometry x="10" y="250" width="60" height="30" as="geometry" />
        </mxCell>
        <mxCell id="_V6ixGNHPL5zndSTNIyI-45" value="&lt;font style=&quot;font-size: 24px;&quot;&gt;: Suit&lt;/font&gt;" style="text;html=1;strokeColor=none;fillColor=none;align=center;verticalAlign=middle;whiteSpace=wrap;rounded=0;" vertex="1" parent="1">
          <mxGeometry x="450" y="25" width="60" height="30" as="geometry" />
        </mxCell>
        <mxCell id="_V6ixGNHPL5zndSTNIyI-46" value="&lt;font style=&quot;font-size: 24px;&quot;&gt;: (Suit, Int)&lt;/font&gt;" style="text;html=1;strokeColor=none;fillColor=none;align=center;verticalAlign=middle;whiteSpace=wrap;rounded=0;" vertex="1" parent="1">
          <mxGeometry x="205" y="250" width="120" height="30" as="geometry" />
        </mxCell>
      </root>
    </mxGraphModel>
  </diagram>
</mxfile>
